 <svg width="178" height="63" viewBox="0 0 178 63" fill="none" xmlns="http://www.w3.org/2000/svg">
<path fill-rule="evenodd" clip-rule="evenodd" d="M58.3625 25.2286C57.5755 27.3641 55.0634 28.6364 52.75 28.6364H20.0542C17.7426 28.6364 16.508 27.3641 17.2939 25.2286C18.0809 23.0926 20.5928 21.8182 22.9047 21.8182H55.6019C57.9141 21.8182 59.1495 23.0926 58.3625 25.2286Z" fill="#77BC1F"/>
<path fill-rule="evenodd" clip-rule="evenodd" d="M52.309 14.318C51.5153 16.4549 48.9859 17.7272 46.6575 17.7272H23.9276C21.5997 17.7272 20.3543 16.4549 21.1482 14.318C21.9405 12.182 24.471 10.9091 26.7972 10.9091H49.5285C51.8572 10.9091 53.0998 12.182 52.309 14.318Z" fill="#77BC1F"/>
<path fill-rule="evenodd" clip-rule="evenodd" d="M65.2402 3.40896C64.4512 5.54455 61.9336 6.81818 59.6161 6.81818H27.764C25.4487 6.81818 24.209 5.54455 24.9983 3.40896C25.7881 1.27445 28.3046 0 30.6216 0H62.4736C64.7909 0 66.0281 1.27445 65.2402 3.40896Z" fill="#77BC1F"/>
<path fill-rule="evenodd" clip-rule="evenodd" d="M135.635 21.7834C139.275 21.7571 142.127 20.4997 143.288 17.8087L146.235 10.9769C147.395 8.28594 145.616 7.05979 141.977 7.08368H127.615C123.909 7.10893 121.058 8.36712 119.896 11.0589L116.949 17.8891C115.789 20.5822 117.568 21.8081 121.274 21.7834H135.635ZM116.038 28.6364C112.599 28.6364 104.888 27.8183 109.61 16.8766L111.59 12.2856C114.779 4.89311 119.323 0.272766 127.906 0.272766H146.717C154.13 0.272766 156.724 4.69328 153.576 11.9907L151.595 16.5826C148.422 23.9379 145.633 28.6364 133.713 28.6364H116.038Z" fill="#F4F4F4"/>
<path fill-rule="evenodd" clip-rule="evenodd" d="M106.217 0H82.2109C81.8564 0 81.4669 0.0333719 81.0619 0.091636C73.2292 0.495108 68.9557 5.05666 65.9155 12.1632L63.9376 16.7891C59.2243 27.8114 66.9247 28.6364 70.3592 28.6364H88.0092C99.9159 28.6364 102.7 23.9025 105.869 16.4928L106.62 14.74L106.615 14.7378C106.671 14.6207 106.725 14.5012 106.769 14.3773C107.558 12.2127 106.319 10.9216 104.002 10.9216H86.2808C83.9643 10.9216 81.4466 12.2127 80.6579 14.3773C79.8677 16.5434 81.1061 17.8337 83.4237 17.8337H97.5213C96.333 20.4707 93.516 21.7071 89.9314 21.7319H75.5873C71.8873 21.7568 70.1091 20.5213 71.2681 17.8086L74.2129 10.9279C75.3718 8.21523 78.2185 6.94765 81.9199 6.92303V6.91263H103.36C105.677 6.91263 108.194 5.62125 108.983 3.45645C109.773 1.2922 108.533 0 106.217 0Z" fill="#F4F4F4"/>
<path fill-rule="evenodd" clip-rule="evenodd" d="M19.602 47.9596H20.0837C20.4275 47.9596 20.5651 47.8013 20.5651 47.4624V44.0727C20.5651 43.6886 20.3817 43.5303 20.0376 43.5303H19.602V47.9596ZM16.782 40.9091H20.7024C22.9034 40.9091 23.3848 41.9712 23.3848 43.7338V47.7109C23.3848 49.5866 22.8117 50.5356 20.6338 50.5356H19.602V56.7273H16.782V40.9091Z" fill="#F4F4F4"/>
<path fill-rule="evenodd" clip-rule="evenodd" d="M28.8183 53.9091V43.7046C28.8183 43.3864 28.6579 43.1591 28.3369 43.1591C28.0159 43.1591 27.8555 43.3864 27.8555 43.7046V53.9091C27.8555 54.2725 28.0159 54.4773 28.3369 54.4773C28.6579 54.4773 28.8183 54.2725 28.8183 53.9091ZM25.0355 53.9317V43.7275C25.0355 41.9774 25.7921 40.6364 28.3369 40.6364C30.8817 40.6364 31.6383 41.9774 31.6383 43.7275V53.9317C31.6383 55.6819 30.8817 57 28.3369 57C25.7921 57 25.0355 55.6819 25.0355 53.9317Z" fill="#F4F4F4"/>
<path fill-rule="evenodd" clip-rule="evenodd" d="M38.0808 56.7273H34.8025L33.0139 40.9091H35.857L36.4759 51.801L37.4849 40.9091H40.3732L41.3821 51.801L42.0011 40.9091H44.8439L43.0787 56.7273H39.7773L38.929 45.4962L38.0808 56.7273Z" fill="#F4F4F4"/>
<path fill-rule="evenodd" clip-rule="evenodd" d="M49.2777 54.1058H51.7218V56.7273H46.4946V40.9091H51.7218V43.5305H49.2777V47.4398H51.4049V50.0158H49.2777V54.1058Z" fill="#F4F4F4"/>
<path fill-rule="evenodd" clip-rule="evenodd" d="M56.1287 47.9595H56.6192C56.9697 47.9595 57.1099 47.8011 57.1099 47.4623V44.0729C57.1099 43.6886 56.923 43.5305 56.5727 43.5305H56.1287V47.9595ZM56.1754 50.3546H56.1287V56.7273H53.3725V40.9091H57.2498C59.4923 40.9091 59.9828 41.9712 59.9828 43.7341V47.711C59.9828 49.0668 59.6557 49.7673 58.8852 50.1286L60.8006 56.7273H57.7638L56.1754 50.3546Z" fill="#F4F4F4"/>
<path fill-rule="evenodd" clip-rule="evenodd" d="M68.6627 54.1061H69.203C69.4732 54.1061 69.6084 53.9702 69.6084 53.654V50.5359C69.6084 50.1515 69.4732 50.0156 69.1129 50.0156H68.6627V54.1061ZM68.6627 47.4396H69.1356C69.4733 47.4396 69.6084 47.2813 69.6084 46.8972V43.9596C69.6084 43.6659 69.4506 43.5306 69.1803 43.5306H68.6627V47.4396ZM66.0278 40.9091H69.5633C71.7926 40.9091 72.2878 41.7677 72.2878 43.3947V46.852C72.2878 47.7561 71.9951 48.2982 71.3875 48.6823C72.0626 49.0894 72.3555 49.6543 72.3555 50.5805V53.9929C72.3555 55.6199 71.86 56.7273 69.6985 56.7273H66.0278V40.9091Z" fill="#F4F4F4"/>
<path fill-rule="evenodd" clip-rule="evenodd" d="M76.7894 54.1061H79.2334V56.7273H74.0062V40.9091H79.2334V43.5306H76.7894V47.4396H78.9165V50.0156H76.7894V54.1061Z" fill="#F4F4F4"/>
<path fill-rule="evenodd" clip-rule="evenodd" d="M82.3926 56.7273V51.1459L80.3338 40.9091H83.2298L83.7729 47.0332L84.3157 40.9091H87.2117L85.1756 51.1459V56.7273H82.3926Z" fill="#F4F4F4"/>
<path fill-rule="evenodd" clip-rule="evenodd" d="M92.0947 53.9091V43.7044C92.0947 43.3864 91.9343 43.1591 91.6133 43.1591C91.2926 43.1591 91.1319 43.3864 91.1319 43.7044V53.9091C91.1319 54.2725 91.2926 54.4773 91.6133 54.4773C91.9343 54.4773 92.0947 54.2725 92.0947 53.9091ZM88.3122 53.9317V43.7275C88.3122 41.9774 89.0682 40.6364 91.6133 40.6364C94.1584 40.6364 94.915 41.9774 94.915 43.7275V53.9317C94.915 55.6819 94.1584 57 91.6133 57C89.0682 57 88.3122 55.6819 88.3122 53.9317Z" fill="#F4F4F4"/>
<path fill-rule="evenodd" clip-rule="evenodd" d="M99.2697 47.8462C99.3151 48.6146 99.3605 51.0326 99.3605 51.9818V56.7273H96.8408V40.9091H99.4059L101.313 49.8126C101.267 48.999 101.199 46.626 101.199 45.6767V40.9091H103.719V56.7273H101.177L99.2697 47.8462Z" fill="#F4F4F4"/>
<path fill-rule="evenodd" clip-rule="evenodd" d="M108.74 54.1061H109.221C109.565 54.1061 109.702 53.9477 109.702 53.6088V44.073C109.702 43.6886 109.519 43.5306 109.175 43.5306H108.74V54.1061ZM105.92 40.9091H109.611C111.949 40.9091 112.522 41.9033 112.522 43.7336V53.9025C112.522 55.8008 111.949 56.7273 109.68 56.7273H105.92V40.9091Z" fill="#F4F4F4"/>
<path fill-rule="evenodd" clip-rule="evenodd" d="M120.935 54.106H121.475C121.745 54.106 121.881 53.9701 121.881 53.654V50.5358C121.881 50.1514 121.745 50.0158 121.385 50.0158H120.935V54.106ZM120.935 47.4395H121.407C121.745 47.4395 121.881 47.2814 121.881 46.897V43.9594C121.881 43.6657 121.723 43.5303 121.453 43.5303H120.935V47.4395ZM118.3 40.9091H121.836C124.065 40.9091 124.56 41.7674 124.56 43.3945V46.8518C124.56 47.7562 124.267 48.2981 123.659 48.6824C124.335 49.0893 124.628 49.6544 124.628 50.5807V53.9929C124.628 55.6199 124.132 56.7273 121.97 56.7273H118.3V40.9091Z" fill="#F4F4F4"/>
<path fill-rule="evenodd" clip-rule="evenodd" d="M129.337 54.1058H131.781V56.7273H126.553V40.9091H131.781V43.5303H129.337V47.4396H131.464V50.0156H129.337V54.1058Z" fill="#F4F4F4"/>
<path fill-rule="evenodd" clip-rule="evenodd" d="M133.156 40.9091H136.043V54.1063H138.108V56.7273H133.156V40.9091Z" fill="#F4F4F4"/>
<path fill-rule="evenodd" clip-rule="evenodd" d="M139.759 56.7273H142.51V40.9091H139.759V56.7273Z" fill="#F4F4F4"/>
<path fill-rule="evenodd" clip-rule="evenodd" d="M146.944 54.1058H149.388V56.7273H144.161V40.9091H149.388V43.5303H146.944V47.4396H149.072V50.0156H146.944V54.1058Z" fill="#F4F4F4"/>
<path fill-rule="evenodd" clip-rule="evenodd" d="M151.039 56.7273V40.9091H156.266V43.5303H153.935V47.4395H155.889V50.0155H153.935V56.7273H151.039Z" fill="#F4F4F4"/>
<path fill-rule="evenodd" clip-rule="evenodd" d="M161.173 2.63726L161.738 1.09088H162.318V3.2727H161.94V1.56753H161.93L161.309 3.2727H161.026L160.405 1.56753H160.395V3.2727H160.017V1.09088H160.602L161.173 2.63726ZM159.593 1.43511H158.957V3.2727H158.553V1.43511H157.917V1.09088H159.593V1.43511Z" fill="#F4F4F4"/>
<path fill-rule="evenodd" clip-rule="evenodd" d="M161.173 42.4553L161.738 40.9091H162.318V43.0909H161.94V41.3857H161.93L161.309 43.0909H161.026L160.405 41.3857H160.395V43.0909H160.017V40.9091H160.602L161.173 42.4553ZM159.593 41.2536H158.957V43.0909H158.553V41.2536H157.917V40.9091H159.593V41.2536Z" fill="#F4F4F4"/>
<path d="M11.1346 35.1818L0 35.7273L11.1346 36.2727H166.865L178 35.7273L166.865 35.1818H11.1346Z" fill="url(#paint0_linear_1_161)"/>
<path fill-rule="evenodd" clip-rule="evenodd" d="M11.1346 61.3636L0 61.9092L11.1346 62.4546H166.865L178 61.9092L166.865 61.3636H11.1346Z" fill="url(#paint1_linear_1_161)"/>
<defs>
<linearGradient id="paint0_linear_1_161" x1="-4.5418" y1="35.4355" x2="174.291" y2="35.4355" gradientUnits="userSpaceOnUse">
<stop stop-color="white" stop-opacity="0"/>
<stop offset="0.124263" stop-color="#70BC1F"/>
<stop offset="0.893535" stop-color="#70BC1F"/>
<stop offset="1" stop-color="white" stop-opacity="0"/>
</linearGradient>
<linearGradient id="paint1_linear_1_161" x1="-4.5418" y1="61.6174" x2="174.291" y2="61.6174" gradientUnits="userSpaceOnUse">
<stop stop-color="white" stop-opacity="0"/>
<stop offset="0.124263" stop-color="#70BC1F"/>
<stop offset="0.893535" stop-color="#70BC1F"/>
<stop offset="1" stop-color="white" stop-opacity="0"/>
</linearGradient>
</defs>
</svg>
