<svg width="159" height="48" viewBox="0 0 159 48" fill="none" xmlns="http://www.w3.org/2000/svg">
<path d="M48.719 17.7187C48.719 16.5713 49.2941 16.1895 50.0946 16.1895H50.4464C51.2785 16.1895 51.8536 16.5398 51.8536 17.7187V25.1065C51.8536 27.7495 53.1976 29.3102 55.5317 29.3102C57.4466 29.3102 58.9465 28.232 59.747 26.6147C59.7512 26.6063 59.7512 26.6 59.7512 26.5916V17.7187C59.7512 16.5713 60.3263 16.1895 61.1268 16.1895H61.4786C62.3107 16.1895 62.8858 16.5398 62.8858 17.7187V31.3533C62.8858 31.5903 62.3739 31.7938 61.7672 31.7938C60.8066 31.7938 59.8165 31.3491 59.7512 29.3731C58.6642 30.9337 57.0021 32.0497 54.6343 32.0497C50.5728 32.0497 48.7169 29.3102 48.7169 25.4883V17.7187H48.719ZM65.2557 30.2981C65.2557 31.4435 65.8308 31.7959 66.6629 31.7959H67.0147C67.8131 31.7959 68.4219 31.4456 68.4219 30.2981V24.9156C68.4219 21.3811 69.4141 18.9605 71.9083 18.9605C72.772 18.9605 73.3787 19.2479 73.859 19.6296C73.9243 19.6946 74.8175 19.2164 74.8175 18.0061C74.8175 16.7328 73.8906 15.9672 72.2917 15.9672C70.341 15.9672 69.0623 16.9866 68.3882 18.8661C68.3566 16.7013 67.3328 16.1916 66.4059 16.1916C65.7655 16.1916 65.2557 16.3846 65.2557 16.63V30.2981ZM82.9237 15.9672C78.1586 15.9672 74.8323 19.3108 74.8323 23.9927C74.8323 28.7375 78.127 32.0832 82.892 32.0832C87.6255 32.0832 90.9518 28.7396 90.9518 24.0577C90.9518 19.3422 87.6255 15.9672 82.9237 15.9672ZM82.892 29.5011C79.9492 29.5011 77.7436 27.1454 77.7436 23.9906C77.7436 20.8379 79.9513 18.5451 82.892 18.5451C85.8665 18.5451 88.0089 20.8693 88.0089 24.0535C88.0089 27.1769 85.8328 29.5011 82.892 29.5011ZM92.6919 30.2981C92.6919 31.4435 93.267 31.7938 94.0991 31.7938H94.4509C95.2493 31.7938 95.8581 31.4435 95.8581 30.2981V21.4126C96.627 19.8205 98.1606 18.7381 100.177 18.7381C102.416 18.7381 103.726 20.3302 103.726 22.9103V30.2981C103.726 31.4435 104.301 31.7938 105.133 31.7938H105.485C106.284 31.7938 106.892 31.4435 106.892 30.2981V22.5264C106.892 18.736 105.005 15.9672 100.943 15.9651C98.5756 15.9651 96.8819 17.1125 95.8265 18.6731C95.7317 16.6657 94.7711 16.1895 93.8442 16.1895C93.2038 16.1895 92.6919 16.3888 92.6919 16.6342V30.2981ZM109.106 12.2711C109.106 13.385 109.81 14.0227 110.994 14.0227C112.209 14.0227 112.881 13.4185 112.881 12.2711C112.881 11.1237 112.209 10.4882 111.025 10.4882C109.81 10.4882 109.106 11.1258 109.106 12.2711ZM109.393 30.2981C109.393 31.4435 110 31.7959 110.832 31.7959H111.152C111.982 31.7959 112.559 31.4456 112.559 30.2981V17.7187C112.559 16.5398 111.984 16.1895 111.152 16.1895H110.832C110 16.1895 109.393 16.5713 109.393 17.7187V30.2981ZM122.506 15.9672C117.901 15.9672 114.51 19.3422 114.51 23.9927C114.51 28.706 117.868 32.0811 122.506 32.0811C127.048 32.0811 129.094 29.2787 129.094 27.8775C129.094 26.5077 127.303 26.2854 127.206 26.4448C126.503 28.1313 125.159 29.4381 122.567 29.4381C119.658 29.4381 117.514 27.1454 117.514 23.9927C117.514 20.8714 119.688 18.6102 122.567 18.6102C125.19 18.6102 126.503 19.9149 127.206 21.6035C127.303 21.7629 129.094 21.5091 129.094 20.2023C129.094 18.7696 127.08 15.9672 122.506 15.9672ZM131.417 27.3636C131.244 27.3489 130.187 27.8565 130.187 28.8025C130.187 30.2667 132.395 32.0518 136.679 32.0518C140.646 32.0518 143.075 30.1723 143.075 27.244C143.075 23.9319 139.78 23.2312 137.415 22.7215C134.92 22.1803 133.576 21.8615 133.576 20.4603C133.576 19.187 134.729 18.3585 136.903 18.3585C138.847 18.3585 140.444 19.2458 141.402 20.5127C141.409 20.5211 141.413 20.5274 141.421 20.5316C141.552 20.5819 142.692 20.0156 142.692 19.0591C142.692 17.6264 140.709 15.9693 136.774 15.9693C133.033 15.9693 130.634 17.9117 130.634 20.777C130.634 24.0262 133.768 24.7269 136.039 25.2051C138.567 25.7463 140.006 26.0337 140.006 27.5943C140.006 28.8676 138.79 29.6647 136.616 29.6647C134.196 29.6647 132.473 28.6851 131.449 27.3887C131.44 27.3741 131.432 27.3636 131.417 27.3636ZM45.4728 23.7682C47.0106 23.2627 46.979 22.5537 46.8168 21.7776C46.3449 19.2751 44.2994 15.9672 39.7639 15.9672C35.2221 15.9672 31.8979 19.4387 31.8979 24.0892C31.8979 28.8655 35.1589 32.0811 40.0209 32.0832C44.2109 32.0832 46.5787 29.9499 46.5787 28.6117C46.5787 27.3992 45.2663 27.051 44.9714 27.0426C44.9377 27.0426 44.9082 27.0615 44.8914 27.0909C44.0888 28.4438 42.7448 29.5996 40.0862 29.5996C37.1981 29.5996 35.1 27.716 34.8493 24.9177L34.8472 24.9156C34.7713 24.1878 34.7798 23.4557 34.8746 22.7194C35.258 20.1708 37.2086 18.3564 39.7366 18.3564C41.9864 18.3564 43.5158 19.6884 43.9624 21.8049C43.9708 21.8447 43.9518 21.8867 43.9139 21.9034C41.327 23.0865 36.5577 23.0215 36.1322 23.0131C36.1132 23.0131 36.0985 23.0257 36.0943 23.0446C35.97 23.5836 35.9953 24.4416 36.0943 24.9702C36.0985 24.9933 36.1174 25.0079 36.1406 25.01C39.1404 25.1632 42.0348 24.8968 45.4728 23.7682Z" fill="white"/>
<path d="M25.9446 26.2412C25.9109 25.6791 26.6419 25.5469 26.7177 26.2056C26.8842 27.6382 27.2486 31.3259 27.2865 31.8356C27.3329 32.467 26.703 32.7502 26.1932 32.2216C26.0668 32.0915 22.8227 28.7542 22.5846 28.4857C22.3508 28.2235 22.2075 28.2193 21.9084 28.3263C21.7736 28.3724 18.4052 29.6373 16.8505 30.212C15.7614 30.6148 15.2832 29.8953 15.8204 29.1171C16.604 27.9823 18.8054 24.9428 18.8728 24.8358C19.0561 24.5484 19.0498 24.3827 18.7233 23.9905C18.4873 23.7073 16.3807 21.4859 15.9489 20.9552C15.595 20.521 14.8471 19.9169 14.9714 19.2897C15.0683 18.803 15.5212 18.5996 15.9742 18.673C16.5766 18.7716 20.2379 19.9295 21.2891 20.1308C21.5082 20.1728 21.6535 19.9064 22.0095 19.3484C23.1492 17.5696 24.1414 16.1328 24.6027 15.5265C25.2368 14.6896 26.0984 14.9329 26.1827 15.9838C26.2901 17.341 26.5239 20.0092 26.6566 21.2237C26.6925 21.5572 26.8252 21.7838 27.1117 21.8844C27.9817 22.1949 28.5757 22.4403 30.7118 22.7655C30.7455 22.7696 30.7708 22.8032 30.7645 22.8368C30.6212 23.6108 30.6634 24.2841 30.6823 24.4981C30.6844 24.5338 30.6571 24.5631 30.6212 24.5568C29.4753 24.3534 27.1391 23.9066 25.7024 23.1745C25.3421 22.992 25.0851 22.6522 25.0009 22.2368C24.9335 21.897 24.8029 19.233 24.7397 18.266C24.1435 19.1869 22.7869 21.2971 22.6984 21.4272C22.4961 21.725 21.9611 22.0627 21.2301 21.8446C20.8678 21.7355 18.6179 21.0769 17.9206 20.8818C18.4389 21.5341 20.1031 23.3192 20.3116 23.5709C20.5623 23.8751 20.773 24.2065 20.7519 24.5296C20.7287 24.8631 20.4443 25.163 20.2632 25.4294C20.0167 25.7923 18.3272 27.7956 17.8743 28.4605C18.7275 28.1564 21.4513 27.0635 21.8557 26.9209C22.454 26.7132 22.8374 26.8747 23.1049 27.1977C23.7791 28.0116 25.6244 29.8995 26.1047 30.5456L25.9446 26.2412Z" fill="#FFCB05"/>
</svg>
